HIERARCHY
ROOT hip
{
	OFFSET 0.000000 0.000000 0.000000 
	CHANNELS 6 Xposition Yposition Zposition Zrotation Yrotation Xrotation
	JOINT abdomen
	{
		OFFSET 0.000000 0.161626 -0.005715 
		CHANNELS 3 Zrotation Xrotation Yrotation
		JOINT chest
		{
			OFFSET 0.000000 0.091440 -0.003810 
			CHANNELS 3 Zrotation Xrotation Yrotation
			JOINT neck
			{
				OFFSET 0.000000 0.173355 -0.017145 
				CHANNELS 3 Zrotation Xrotation Yrotation
				JOINT head
				{
					OFFSET -0.001905 0.055245 0.009525 
					CHANNELS 3 Zrotation Xrotation Yrotation
					JOINT leftEye
					{
						OFFSET 0.032385 0.062865 0.062865 
						CHANNELS 3 Zrotation Xrotation Yrotation
						End Site
						{
							OFFSET 0.007812 0.000000 0.000000 
						}
					}
					JOINT rightEye
					{
						OFFSET -0.028575 0.062865 0.062865 
						CHANNELS 3 Zrotation Xrotation Yrotation
						End Site
						{
							OFFSET 0.007812 0.000000 0.000000 
						}
					}
				}
			}
			JOINT rCollar
			{
				OFFSET -0.020955 0.150495 -0.038100 
				CHANNELS 3 Zrotation Xrotation Yrotation
				JOINT rShldr
				{
					OFFSET -0.068580 -0.015240 0.011430 
					CHANNELS 3 Zrotation Xrotation Yrotation
					JOINT rForeArm
					{
						OFFSET -0.220111 -0.013371 0.003810 
						CHANNELS 3 Zrotation Xrotation Yrotation
						JOINT rHand
						{
							OFFSET -0.176468 0.006041 0.055245 
							CHANNELS 3 Zrotation Xrotation Yrotation
							JOINT rThumb1
							{
								OFFSET -0.009525 -0.003812 0.026670 
								CHANNELS 3 Zrotation Xrotation Yrotation
								JOINT rThumb2
								{
									OFFSET -0.026331 -0.004098 0.026670 
									CHANNELS 3 Zrotation Xrotation Yrotation
									End Site
									{
										OFFSET -0.013927 -0.009235 0.011176 
									}
								}
							}
							JOINT rIndex1
							{
								OFFSET -0.060621 0.007330 0.043815 
								CHANNELS 3 Zrotation Xrotation Yrotation
								JOINT rIndex2
								{
									OFFSET -0.019848 -0.006908 0.012230 
									CHANNELS 3 Zrotation Xrotation Yrotation
									End Site
									{
										OFFSET -0.012697 -0.001834 0.009102 
									}
								}
							}
							JOINT rMid1
							{
								OFFSET -0.064431 0.009235 0.026670 
								CHANNELS 3 Zrotation Xrotation Yrotation
								JOINT rMid2
								{
									OFFSET -0.024232 -0.004610 0.008318 
									CHANNELS 3 Zrotation Xrotation Yrotation
									End Site
									{
										OFFSET -0.019418 -0.002570 0.006542 
									}
								}
							}
							JOINT rRing1
							{
								OFFSET -0.068970 0.004271 0.011850 
								CHANNELS 3 Zrotation Xrotation Yrotation
								JOINT rRing2
								{
									OFFSET -0.020385 -0.006405 -0.000155 
									CHANNELS 3 Zrotation Xrotation Yrotation
									End Site
									{
										OFFSET -0.018269 -0.002297 0.001313 
									}
								}
							}
							JOINT rPinky1
							{
								OFFSET -0.064625 -0.000373 -0.003581 
								CHANNELS 3 Zrotation Xrotation Yrotation
								JOINT rPinky2
								{
									OFFSET -0.014276 -0.005058 -0.005476 
									CHANNELS 3 Zrotation Xrotation Yrotation
									End Site
									{
										OFFSET -0.013221 -0.004044 -0.004744 
									}
								}
							}
						}
					}
				}
			}
			JOINT lCollar
			{
				OFFSET 0.020955 0.150495 -0.038100 
				CHANNELS 3 Zrotation Xrotation Yrotation
				JOINT lShldr
				{
					OFFSET 0.068580 -0.015240 0.011430 
					CHANNELS 3 Zrotation Xrotation Yrotation
					JOINT lForeArm
					{
						OFFSET 0.220111 -0.013371 0.003810 
						CHANNELS 3 Zrotation Xrotation Yrotation
						JOINT lHand
						{
							OFFSET 0.176468 0.006041 0.055245 
							CHANNELS 3 Zrotation Xrotation Yrotation
							JOINT lThumb1
							{
								OFFSET 0.009525 -0.003812 0.026670 
								CHANNELS 3 Zrotation Xrotation Yrotation
								JOINT lThumb2
								{
									OFFSET 0.026331 -0.004098 0.026670 
									CHANNELS 3 Zrotation Xrotation Yrotation
									End Site
									{
										OFFSET 0.013927 -0.009235 0.011176 
									}
								}
							}
							JOINT lIndex1
							{
								OFFSET 0.060621 0.007330 0.043815 
								CHANNELS 3 Zrotation Xrotation Yrotation
								JOINT lIndex2
								{
									OFFSET 0.019848 -0.006908 0.012230 
									CHANNELS 3 Zrotation Xrotation Yrotation
									End Site
									{
										OFFSET 0.012697 -0.001834 0.009102 
									}
								}
							}
							JOINT lMid1
							{
								OFFSET 0.064431 0.009235 0.026670 
								CHANNELS 3 Zrotation Xrotation Yrotation
								JOINT lMid2
								{
									OFFSET 0.024232 -0.004610 0.008318 
									CHANNELS 3 Zrotation Xrotation Yrotation
									End Site
									{
										OFFSET 0.019418 -0.002570 0.006542 
									}
								}
							}
							JOINT lRing1
							{
								OFFSET 0.068970 0.004271 0.011850 
								CHANNELS 3 Zrotation Xrotation Yrotation
								JOINT lRing2
								{
									OFFSET 0.020385 -0.006405 -0.000155 
									CHANNELS 3 Zrotation Xrotation Yrotation
									End Site
									{
										OFFSET 0.018269 -0.002297 0.001313 
									}
								}
							}
							JOINT lPinky1
							{
								OFFSET 0.064625 -0.000373 -0.003581 
								CHANNELS 3 Zrotation Xrotation Yrotation
								JOINT lPinky2
								{
									OFFSET 0.014276 -0.005058 -0.005476 
									CHANNELS 3 Zrotation Xrotation Yrotation
									End Site
									{
										OFFSET 0.013221 -0.004044 -0.004744 
									}
								}
							}
						}
					}
				}
			}
		}
	}
	JOINT rButtock
	{
		OFFSET -0.068580 0.033991 0.009525 
		CHANNELS 3 Zrotation Xrotation Yrotation
		JOINT rThigh
		{
			OFFSET 0.000000 -0.013335 -0.017145 
			CHANNELS 3 Zrotation Xrotation Yrotation
			JOINT rShin
			{
				OFFSET 0.000000 -0.287655 0.005715 
				CHANNELS 3 Zrotation Xrotation Yrotation
				JOINT rFoot
				{
					OFFSET 0.005715 -0.352425 -0.040005 
					CHANNELS 3 Zrotation Xrotation Yrotation
					End Site
					{
						OFFSET -0.008766 -0.028903 0.094555 
					}
				}
			}
		}
	}
	JOINT lButtock
	{
		OFFSET 0.068580 0.033991 0.009525 
		CHANNELS 3 Zrotation Xrotation Yrotation
		JOINT lThigh
		{
			OFFSET 0.000000 -0.013335 -0.017145 
			CHANNELS 3 Zrotation Xrotation Yrotation
			JOINT lShin
			{
				OFFSET 0.000000 -0.287655 0.005715 
				CHANNELS 3 Zrotation Xrotation Yrotation
				JOINT lFoot
				{
					OFFSET -0.005715 -0.352425 -0.040005 
					CHANNELS 3 Zrotation Xrotation Yrotation
					End Site
					{
						OFFSET 0.008766 -0.028903 0.094555 
					}
				}
			}
		}
	}
}
MOTION
Frames: 9
Frame Time: 0.008333
0.032942 0.637095 0.168877 540.586975 -141.136993 545.632996 4.922120 -14.899000 3.348070 -2.351280 3.228600 0.883887 -4.897840 11.698900 -10.433100 2.328580 -4.938310 -20.125700 -0.000000 0.000000 0.000000 -0.000000 0.000000 0.000000 -0.000000 -0.000000 -0.000000 43.477901 65.869797 57.615799 -26.779499 -44.525398 92.574997 -5.939370 -54.806900 -11.467100 -0.000000 -0.000000 0.000000 -0.000000 -0.000000 0.000000 -0.000000 -0.000000 0.000000 7.730910 5.474880 0.417314 -0.000000 -0.000000 0.000000 2.905540 0.965183 0.102902 -0.000000 -0.000000 0.000000 10.278600 0.731801 0.025912 -0.000000 -0.000000 0.000000 2.221670 -0.733487 -0.208920 -0.000000 -0.000000 -0.000000 -31.709200 38.675201 -35.446701 27.372499 -42.937500 -89.358200 6.258090 -55.560101 11.837200 0.000000 -0.000000 0.000000 0.000000 -0.000000 0.000000 0.000000 -0.000000 0.000000 -7.730910 5.474880 -0.417314 0.000000 -0.000000 0.000000 -2.905540 0.965183 -0.102902 0.000000 -0.000000 0.000000 -10.278600 0.731801 -0.025912 0.000000 -0.000000 0.000000 -2.221670 -0.733487 0.208920 -0.000000 0.000000 -0.000000 -0.208018 -3.820140 3.442840 0.036868 16.772400 0.578662 -9.398280 -14.472400 -29.200701 0.000000 0.000000 0.000000 9.220380 -27.177900 23.947901 0.189148 31.335899 -0.692494 3.870830 -8.670350 13.417400 
0.031439 0.635806 0.176219 540.947021 -142.621002 545.380981 4.806650 -15.405400 3.316580 -2.367320 3.368900 0.875823 -5.245700 11.854600 -10.729300 2.653260 -4.458110 -20.681801 -0.000000 0.000000 0.000000 -0.000000 0.000000 0.000000 -0.000000 -0.000000 -0.000000 45.983299 63.835701 56.284100 -27.044500 -43.895100 91.236198 -6.950270 -57.352299 -12.671200 -0.000000 -0.000000 0.000000 -0.000000 -0.000000 0.000000 -0.000000 -0.000000 0.000000 7.730910 5.474880 0.417314 -0.000000 -0.000000 0.000000 2.905540 0.965183 0.102902 -0.000000 -0.000000 0.000000 10.278600 0.731801 0.025912 -0.000000 -0.000000 0.000000 2.221670 -0.733487 -0.208920 -0.000000 -0.000000 -0.000000 -30.944901 37.235298 -36.357399 27.420700 -42.772301 -89.051003 6.188720 -55.404202 11.756800 0.000000 -0.000000 0.000000 0.000000 -0.000000 0.000000 0.000000 -0.000000 0.000000 -7.730910 5.474880 -0.417314 0.000000 -0.000000 0.000000 -2.905540 0.965183 -0.102902 0.000000 -0.000000 0.000000 -10.278600 0.731801 -0.025912 0.000000 -0.000000 0.000000 -2.221670 -0.733487 0.208920 -0.000000 0.000000 -0.000000 -0.675149 -3.321870 2.858860 0.033386 17.304899 0.590513 -9.676950 -14.602600 -29.594700 0.000000 0.000000 0.000000 8.103810 -26.353800 23.531601 0.179592 30.637199 -0.679537 3.847530 -9.469720 12.686900 
0.029910 0.634549 0.183246 541.132019 -144.147003 545.166992 4.561760 -15.659300 3.190510 -2.385190 3.434700 0.845000 -5.518420 12.017300 -11.011500 2.985070 -4.160940 -21.213800 -0.000000 0.000000 0.000000 -0.000000 0.000000 0.000000 -0.000000 -0.000000 -0.000000 48.546600 61.707802 54.976799 -27.322500 -43.133301 89.697800 -7.780940 -59.188400 -13.642100 -0.000000 -0.000000 0.000000 -0.000000 -0.000000 0.000000 -0.000000 -0.000000 0.000000 7.730910 5.474880 0.417314 -0.000000 -0.000000 0.000000 2.905540 0.965183 0.102902 -0.000000 -0.000000 0.000000 10.278600 0.731801 0.025912 -0.000000 -0.000000 0.000000 2.221670 -0.733487 -0.208920 -0.000000 -0.000000 -0.000000 -30.071100 36.224201 -37.523701 27.448200 -42.674599 -88.871399 6.031010 -54.968201 11.564700 0.000000 0.000000 0.000000 0.000000 0.000000 0.000000 0.000000 0.000000 0.000000 -7.730910 5.474880 -0.417314 0.000000 0.000000 0.000000 -2.905540 0.965183 -0.102902 0.000000 0.000000 0.000000 -10.278600 0.731801 -0.025912 0.000000 0.000000 0.000000 -2.221670 -0.733487 0.208920 -0.000000 0.000000 -0.000000 -1.189380 -3.159480 2.308440 0.027300 18.579399 0.620697 -9.960670 -14.835600 -29.692801 0.000000 0.000000 0.000000 6.735670 -25.851101 22.244400 0.173431 30.192699 -0.668773 3.936070 -10.020100 12.602300 
0.028715 0.633563 0.189891 541.336975 -145.630005 544.890991 4.253300 -15.747500 2.943500 -2.389670 3.441790 0.781947 -5.764070 12.178600 -11.259500 3.317950 -3.962860 -21.681299 -0.000000 0.000000 0.000000 -0.000000 0.000000 0.000000 -0.000000 -0.000000 -0.000000 51.136799 59.405300 53.711899 -27.583799 -42.207802 87.998001 -8.525710 -60.685200 -14.503600 -0.000000 -0.000000 0.000000 -0.000000 -0.000000 0.000000 -0.000000 -0.000000 0.000000 7.730910 5.474880 0.417314 -0.000000 -0.000000 0.000000 2.905540 0.965183 0.102902 -0.000000 -0.000000 0.000000 10.278600 0.731801 0.025912 -0.000000 -0.000000 0.000000 2.221670 -0.733487 -0.208920 -0.000000 -0.000000 -0.000000 -29.186001 35.493401 -38.873901 27.465300 -42.613300 -88.758499 5.877790 -54.533100 11.377200 0.000000 0.000000 0.000000 0.000000 0.000000 0.000000 0.000000 0.000000 0.000000 -7.730910 5.474880 -0.417314 0.000000 0.000000 0.000000 -2.905540 0.965183 -0.102902 0.000000 0.000000 0.000000 -10.278600 0.731801 -0.025912 0.000000 0.000000 0.000000 -2.221670 -0.733487 0.208920 -0.000000 0.000000 -0.000000 -1.736530 -3.292960 1.757650 0.016966 20.467899 0.665578 -10.243800 -15.143800 -29.564899 0.000000 0.000000 0.000000 5.191730 -25.598101 20.264400 0.171299 30.126699 -0.662941 4.108670 -10.459000 12.886300 
0.028451 0.633066 0.196185 541.734985 -147.007004 544.487976 3.939910 -15.708400 2.690580 -2.396710 3.415750 0.716292 -5.965450 12.331000 -11.489000 3.621580 -3.794510 -22.116600 -0.000000 0.000000 0.000000 -0.000000 0.000000 0.000000 -0.000000 -0.000000 -0.000000 53.632099 56.942101 52.553699 -27.825199 -41.183998 86.147598 -9.139500 -61.817402 -15.207000 -0.000000 -0.000000 0.000000 -0.000000 -0.000000 0.000000 -0.000000 -0.000000 0.000000 7.730910 5.474880 0.417314 -0.000000 -0.000000 0.000000 2.905540 0.965183 0.102902 -0.000000 -0.000000 0.000000 10.278600 0.731801 0.025912 -0.000000 -0.000000 0.000000 2.221670 -0.733487 -0.208920 -0.000000 -0.000000 -0.000000 -28.352900 35.060299 -40.263401 27.467100 -42.609001 -88.748398 5.739610 -54.129700 11.207100 0.000000 0.000000 0.000000 0.000000 0.000000 0.000000 0.000000 0.000000 0.000000 -7.730910 5.474880 -0.417314 0.000000 0.000000 0.000000 -2.905540 0.965183 -0.102902 0.000000 0.000000 0.000000 -10.278600 0.731801 -0.025912 0.000000 0.000000 0.000000 -2.221670 -0.733487 0.208920 -0.000000 0.000000 -0.000000 -2.304980 -3.723600 1.026300 -0.002952 22.885599 0.716312 -10.382200 -15.237400 -29.309999 0.000000 0.000000 0.000000 3.767740 -25.347601 18.300200 0.171439 30.246099 -0.656154 4.285480 -10.901400 13.163100 
0.028010 0.632766 0.202077 541.947998 -148.160995 544.098022 3.679970 -15.580800 2.546750 -2.422130 3.382160 0.677660 -6.105290 12.467000 -11.715300 3.868380 -3.587480 -22.552000 -0.000000 0.000000 0.000000 -0.000000 0.000000 0.000000 -0.000000 -0.000000 -0.000000 55.930698 54.335201 51.546101 -28.053301 -40.123100 84.142601 -9.577910 -62.558998 -15.703400 -0.000000 -0.000000 0.000000 -0.000000 -0.000000 0.000000 -0.000000 -0.000000 0.000000 7.730910 5.474880 0.417314 -0.000000 -0.000000 0.000000 2.905540 0.965183 0.102902 -0.000000 -0.000000 0.000000 10.278600 0.731801 0.025912 -0.000000 -0.000000 0.000000 2.221670 -0.733487 -0.208920 -0.000000 -0.000000 -0.000000 -27.627600 34.949001 -41.557499 27.448099 -42.681900 -88.878098 5.625880 -53.788700 11.066300 -0.000000 0.000000 0.000000 -0.000000 0.000000 0.000000 -0.000000 0.000000 0.000000 -7.730910 5.474880 -0.417314 -0.000000 0.000000 0.000000 -2.905540 0.965183 -0.102902 -0.000000 0.000000 0.000000 -10.278600 0.731801 -0.025912 -0.000000 0.000000 0.000000 -2.221670 -0.733487 0.208920 -0.000000 0.000000 -0.000000 -2.892340 -4.451870 -0.066487 -0.036352 25.747801 0.763792 -10.239300 -14.823400 -29.028700 0.000000 0.000000 0.000000 2.762930 -24.891100 17.069599 0.172206 30.357901 -0.642606 4.375470 -11.465700 13.055200 
0.027221 0.632619 0.207734 542.012024 -149.153000 543.640991 3.539020 -15.328400 2.593520 -2.496540 3.342630 0.687185 -6.150950 12.590700 -11.940400 4.025130 -3.326880 -22.995199 -0.000000 0.000000 0.000000 -0.000000 0.000000 0.000000 -0.000000 -0.000000 -0.000000 58.068699 51.620800 50.682999 -28.259899 -38.955101 81.942001 -9.780840 -62.873901 -15.929700 -0.000000 -0.000000 0.000000 -0.000000 -0.000000 0.000000 -0.000000 -0.000000 0.000000 7.730910 5.474880 0.417314 -0.000000 -0.000000 0.000000 2.905540 0.965183 0.102902 -0.000000 -0.000000 0.000000 10.278600 0.731801 0.025912 -0.000000 -0.000000 0.000000 2.221670 -0.733487 -0.208920 -0.000000 -0.000000 -0.000000 -27.014099 35.245800 -42.760700 27.395800 -42.865799 -89.217102 5.530990 -53.498600 10.948400 -0.000000 0.000000 0.000000 -0.000000 0.000000 0.000000 -0.000000 0.000000 0.000000 -7.730910 5.474880 -0.417314 -0.000000 0.000000 0.000000 -2.905540 0.965183 -0.102902 -0.000000 0.000000 0.000000 -10.278600 0.731801 -0.025912 -0.000000 0.000000 0.000000 -2.221670 -0.733487 0.208920 -0.000000 0.000000 -0.000000 -3.536030 -5.519670 -1.661160 -0.086755 29.206100 0.805981 -9.716840 -13.608900 -28.830700 0.000000 0.000000 0.000000 2.389780 -24.163300 16.979300 0.174371 30.482700 -0.619590 4.311830 -12.249100 12.327700 
0.026503 0.632678 0.213326 542.004028 -150.117004 543.129028 3.467820 -14.946300 2.752310 -2.602650 3.285260 0.724654 -6.121330 12.704100 -12.156500 4.115750 -3.048450 -23.429501 -0.000000 0.000000 0.000000 -0.000000 0.000000 0.000000 -0.000000 -0.000000 -0.000000 60.093800 48.786499 49.956501 -28.396999 -37.624500 79.630203 -9.731760 -62.790199 -15.873800 -0.000000 -0.000000 -0.000000 -0.000000 -0.000000 -0.000000 -0.000000 -0.000000 -0.000000 7.730910 5.474880 0.417314 -0.000000 -0.000000 -0.000000 2.905540 0.965183 0.102902 -0.000000 -0.000000 -0.000000 10.278600 0.731801 0.025912 -0.000000 -0.000000 -0.000000 2.221670 -0.733487 -0.208920 -0.000000 -0.000000 -0.000000 -26.441000 35.897999 -43.965401 27.311600 -43.136501 -89.733398 5.450660 -53.249802 10.848300 -0.000000 0.000000 0.000000 -0.000000 0.000000 0.000000 -0.000000 0.000000 0.000000 -7.730910 5.474880 -0.417314 -0.000000 0.000000 0.000000 -2.905540 0.965183 -0.102902 -0.000000 0.000000 0.000000 -10.278600 0.731801 -0.025912 -0.000000 0.000000 0.000000 -2.221670 -0.733487 0.208920 -0.000000 0.000000 -0.000000 -4.293540 -6.905540 -3.638430 -0.153886 33.247601 0.851598 -8.917660 -11.820000 -28.660500 0.000000 0.000000 0.000000 2.408430 -23.300699 17.563601 0.178188 30.699499 -0.590488 4.128810 -13.168700 11.222100 
0.025901 0.632600 0.218527 541.898010 -151.061005 542.757996 3.353030 -14.520200 2.898150 -2.684400 3.215380 0.757667 -6.076580 12.796700 -12.365100 4.199860 -2.760250 -23.850500 -0.000000 0.000000 0.000000 -0.000000 0.000000 0.000000 -0.000000 -0.000000 -0.000000 61.936600 45.783401 49.401100 -28.445700 -36.226501 77.337700 -9.475840 -62.376701 -15.586200 -0.000000 -0.000000 -0.000000 -0.000000 -0.000000 -0.000000 -0.000000 -0.000000 -0.000000 7.730910 5.474880 0.417314 -0.000000 -0.000000 -0.000000 2.905540 0.965183 0.102902 -0.000000 -0.000000 -0.000000 10.278600 0.731801 0.025912 -0.000000 -0.000000 -0.000000 2.221670 -0.733487 -0.208920 -0.000000 -0.000000 -0.000000 -25.863001 36.732899 -45.166199 27.212400 -43.429001 -90.309303 5.395080 -53.075802 10.778900 -0.000000 0.000000 0.000000 -0.000000 0.000000 0.000000 -0.000000 0.000000 0.000000 -7.730910 5.474880 -0.417314 -0.000000 0.000000 0.000000 -2.905540 0.965183 -0.102902 -0.000000 0.000000 0.000000 -10.278600 0.731801 -0.025912 -0.000000 0.000000 0.000000 -2.221670 -0.733487 0.208920 -0.000000 0.000000 -0.000000 -5.190550 -8.512350 -5.791850 -0.234822 37.541000 0.906931 -8.019170 -9.933770 -28.363001 0.000000 0.000000 0.000000 2.455990 -22.413401 18.240900 0.181472 30.902599 -0.558721 3.895210 -14.073600 10.076800 
